#!OML:ASF I:\salsa\salsa 7_09\Patient 1\Session 1\dancermale.ASF
:FULLY-SPECIFIED
:DEGREES
2173
root 3.90499 16.8172 -2.67578 900.847 -299.065 -182.353
lowerback 1.88932 -0.71073 3.30893
upperback 0.54992 -0.833716 1.91612
thorax -0.514921 -0.40147 0.128704
lowerneck -8.4413 -4.25785 -4.40778
upperneck 27.3458 -3.69762 -1.54244
head 10.1604 -1.91807 -0.12989
rclavicle 5.66536e-014 -2.38542e-014
rhumerus -7.85898 24.1861 -105.028
rradius 69.8805
rwrist -1.34609
rhand -11.4809 705.804
rfingers 7.12502
rthumb 14.5572 -43.6654
lclavicle 5.66536e-014 -2.38542e-014
lhumerus -3.11651 -49.3077 92.2432
lradius 89.6123
lwrist -4.51056
lhand -31.9355 -315.529
lfingers 7.12502
lthumb -5.18645 434.387
rfemur -17.6824 -14.2026 20.7869
rtibia 48.9528
rfoot -22.5612 -22.4872
rtoes 1.23552
lfemur -217.87 172.759 -202.738
ltibia 46.0161
lfoot -9.00736 7.37454
ltoes -12.1354
2174
root 3.95964 16.7922 -2.69519 899.903 -299.8 -183.663
lowerback 1.81291 -0.695994 2.70074
upperback 0.512369 -0.835272 1.78703
thorax -0.503753 -0.405059 0.335568
lowerneck -8.40402 -4.35119 -4.52435
upperneck 26.9883 -3.78253 -1.73802
head 10.0243 -1.99441 -0.185052
rclavicle -2.50469e-014 1.82882e-014
rhumerus -7.19241 22.6637 -105.644
rradius 68.6152
rwrist -1.22005
rhand -14.0534 705.242
rfingers 7.12502
rthumb 12.0776 -44.3892
lclavicle -2.50469e-014 1.82882e-014
lhumerus -4.5845 -48.3753 96.1191
lradius 89.6282
lwrist -1.10066
lhand -32.0006 -314.311
lfingers 7.12502
lthumb -5.24928 435.604
rfemur -19.6702 -14.9878 19.7646
rtibia 52.848
rfoot -20.9137 -21.1356
rtoes 2.37675
lfemur -217.708 173.459 -203.662
ltibia 45.6917
lfoot -10.0216 7.65151
ltoes -14.3311
2175
root 4.00623 16.7712 -2.70617 899.265 -300.557 -184.703
lowerback 1.71305 -0.670685 2.2554
upperback 0.41474 -0.817572 1.65087
thorax -0.54322 -0.399347 0.44419
lowerneck -8.3647 -4.46507 -4.65809
upperneck 26.9 -3.88951 -1.84312
head 9.98907 -2.06624 -0.209428
rclavicle -1.308e-013 1.90833e-014
rhumerus -7.02277 20.6529 -106.094
rradius 67.7249
rwrist -0.886236
rhand -16.7934 703.948
rfingers 7.12502
rthumb 9.43464 -45.8206
lclavicle -1.308e-013 1.90833e-014
lhumerus -6.02474 -47.5364 99.7586
lradius 89.7929
lwrist 2.24249
lhand -32.0147 -313.505
lfingers 7.12502
lthumb -5.26289 436.409
rfemur -21.6937 -15.5672 18.903
rtibia 56.5423
rfoot -18.9677 -19.3128
rtoes 4.00785
lfemur -217.683 173.821 -204.476
ltibia 45.3784
lfoot -10.8564 7.55227
ltoes -15.7426
2176
root 4.04526 16.7526 -2.70576 898.843 -301.276 -185.704
lowerback 1.40897 -0.69519 1.64701
upperback 0.297968 -0.871401 1.6358
thorax -0.483962 -0.427527 0.767241
lowerneck -8.28459 -4.51801 -4.70701
upperneck 26.8038 -3.82192 -2.32552
head 9.93138 -2.08726 -0.358893
rclavicle -1.37161e-014 -2.06736e-014
rhumerus -7.1485 18.5278 -106.252
rradius 67.063
rwrist -0.367795
rhand -19.718 701.821
rfingers 7.12502
rthumb 6.61206 -48.0556
lclavicle -1.37161e-014 -2.06736e-014
lhumerus -7.20073 -46.4445 103.132
lradius 90.0626
lwrist 5.50185
lhand -31.6383 -312.148
lfingers 7.12502
lthumb -4.89945 437.775
rfemur -23.9235 -15.8538 18.0735
rtibia 59.9625
rfoot -16.6229 -17.1837
rtoes 5.71924
lfemur -217.814 173.993 -205.227
ltibia 44.8562
lfoot -11.331 7.09213
ltoes -18.1028
2177
root 4.07332 16.7333 -2.69586 898.717 -301.93 -186.543
lowerback 1.00819 -0.712987 1.1492
upperback 0.125314 -0.911527 1.63706
thorax -0.428194 -0.448467 1.04391
lowerneck -8.44477 -4.54711 -5.23903
upperneck 27.1867 -3.70386 -2.30976
head 10.1204 -2.07534 -0.257954
rclavicle -1.3418e-014 5.08889e-014
rhumerus -7.451 16.2787 -106.169
rradius 66.4406
rwrist 0.421078
rhand -22.5851 698.847
rfingers 7.12502
rthumb 3.84378 -51.0978
lclavicle -1.3418e-014 5.08889e-014
lhumerus -8.10414 -45.2367 106.227
lradius 90.3387
lwrist 9.82963
lhand -31.9747 -311.797
lfingers 7.12502
lthumb -5.22432 438.119
rfemur -26.3013 -15.7378 17.3457
rtibia 63.116
rfoot -14.2757 -15.1499
rtoes 9.3726
lfemur -218.132 174.017 -205.884
ltibia 44.2454
lfoot -11.5958 6.40726
ltoes -20.2003
2178
root 4.09082 16.7108 -2.67945 898.865 -302.663 -186.889
lowerback 0.851792 -0.75643 1.11029
upperback -0.0637167 -0.971372 1.59014
thorax -0.533595 -0.479275 1.01789
lowerneck -8.37937 -4.57096 -5.65423
upperneck 27.3272 -3.61077 -2.36484
head 10.1725 -2.07124 -0.19632
rclavicle 3.86636e-014 -1.66979e-014
rhumerus -8.00397 13.7157 -106.021
rradius 65.8751
rwrist 1.56556
rhand -25.3368 694.792
rfingers 7.12502
rthumb 1.18626 -55.1849
lclavicle 3.86636e-014 -1.66979e-014
lhumerus -8.94639 -44.0067 109.014
lradius 90.6795
lwrist 15.4382
lhand -33.0134 -312.052
lfingers 7.12502
lthumb -6.22712 437.837
rfemur -28.3767 -15.3542 16.7874
rtibia 65.9884
rfoot -12.4615 -13.4173
rtoes 13.4081
lfemur -218.376 174.048 -206.255
ltibia 43.7804
lfoot -11.9379 5.56078
ltoes -21.115
2179
root 4.109 16.6912 -2.64602 899.045 -303.533 -187.142
lowerback 0.752382 -0.880235 0.997534
upperback -0.247858 -1.13716 1.57218
thorax -0.662933 -0.5624 1.06506
lowerneck -8.26084 -4.56366 -5.80667
upperneck 27.4402 -3.4933 -2.55375
head 10.1925 -2.04357 -0.221389
rclavicle 5.29761e-014 -2.54444e-014
rhumerus -8.7146 12.1754 -105.384
rradius 65.4661
rwrist 1.87484
rhand -27.3467 691.613
rfingers 7.12502
rthumb -0.754961 -58.3653
lclavicle 5.29761e-014 -2.54444e-014
lhumerus -9.66249 -42.6269 111.445
lradius 90.8995
lwrist 20.7699
lhand -33.9647 -312.257
lfingers 7.12502
lthumb -7.14546 437.603
rfemur -30.0852 -14.6504 16.2
rtibia 68.3683
rfoot -11.4118 -12.0491
rtoes 15.5124
lfemur -218.736 174.168 -206.548
ltibia 43.6029
lfoot -12.3632 4.62991
ltoes -20.5088
2180
root 4.12684 16.6748 -2.59487 899.368 -304.466 -187.237
lowerback 0.71463 -1.05152 0.904996
upperback -0.478522 -1.36297 1.57559
thorax -0.873163 -0.674939 1.12555
lowerneck -8.11544 -4.54947 -5.78146
upperneck 27.5701 -3.31914 -3.01969
head 10.2033 -1.99981 -0.366907
rclavicle 3.77691e-015 1.59028e-015
rhumerus -9.69967 11.666 -104.267
rradius 65.2376
rwrist 1.26596
rhand -28.7019 689.48
rfingers 7.12502
rthumb -2.0638 -60.4897
lclavicle 3.77691e-015 1.59028e-015
lhumerus -10.3625 -41.0902 113.601
lradius 91.0924
lwrist 25.8352
lhand -34.7747 -312.335
lfingers 7.12502
lthumb -7.92735 437.497
rfemur -31.5048 -13.4405 15.5726
rtibia 70.1938
rfoot -11.1322 -10.8205
rtoes 18.263
lfemur -219.296 174.291 -206.735
ltibia 43.5934
lfoot -12.6884 3.71241
ltoes -19.8555
2181
root 4.14067 16.6621 -2.53138 899.619 -305.448 -187.328
lowerback 0.64991 -1.27438 0.82659
upperback -0.599052 -1.65969 1.59021
thorax -0.953855 -0.822586 1.18896
lowerneck -8.1186 -4.46675 -5.76562
upperneck 27.7318 -3.04374 -3.45558
head 10.2553 -1.91013 -0.493061
rclavicle -3.57812e-014 0
rhumerus -10.5937 11.4968 -103.003
rradius 65.2105
rwrist 0.66539
rhand -29.7971 687.823
rfingers 7.12502
rthumb -3.12152 -62.1335
lclavicle -3.57812e-014 0
lhumerus -10.8457 -39.6397 115.29
lradius 91.3779
lwrist 30.3423
lhand -35.0491 -312.225
lfingers 7.12502
lthumb -8.19214 437.596
rfemur -32.4748 -11.7834 14.7429
rtibia 71.4114
rfoot -11.2156 -9.5582
rtoes 18.9381
lfemur -219.683 174.789 -206.826
ltibia 43.4156
lfoot -12.8048 3.0868
ltoes -20.232
